<?xml version="1.0" standalone="no"?>
<!DOCTYPE svg PUBLIC "-//W3C//DTD SVG 20010904//EN"
 "http://www.w3.org/TR/2001/REC-SVG-20010904/DTD/svg10.dtd">
<svg version="1.0" xmlns="http://www.w3.org/2000/svg"
 width="1024.000000pt" height="1024.000000pt" viewBox="0 0 1024.000000 1024.000000"
 preserveAspectRatio="xMidYMid meet">
<metadata>
Created by potrace 1.14, written by Peter Selinger 2001-2017
</metadata>
<g transform="translate(0.000000,1024.000000) scale(0.100000,-0.100000)"
fill="#000000" stroke="none">
<path d="M6534 8839 c-386 -45 -771 -247 -1010 -530 -148 -174 -252 -359 -319
-563 -49 -151 -62 -234 -47 -292 22 -83 90 -155 171 -183 49 -16 679 -15 735
1 53 16 139 100 156 153 60 187 193 313 369 351 199 42 376 -10 507 -148 119
-126 172 -260 160 -408 -16 -224 -162 -395 -406 -477 -53 -17 -169 -18 -2935
-23 l-2880 -5 -41 -22 c-52 -28 -108 -90 -125 -139 -11 -30 -14 -115 -14 -369
0 -314 1 -332 21 -375 23 -49 72 -102 119 -128 28 -16 248 -17 2985 -17 2809
0 2960 1 3050 18 285 54 549 192 764 397 263 253 427 537 498 863 30 138 32
474 5 609 -29 145 -65 255 -122 374 -210 442 -585 757 -1043 873 -173 45 -419
61 -598 40z"/>
<path d="M1005 5096 c-59 -27 -117 -88 -136 -142 -11 -30 -14 -115 -14 -369 0
-314 1 -332 21 -375 23 -49 72 -102 119 -128 27 -16 141 -17 1310 -22 1383 -6
1304 -3 1429 -58 217 -97 350 -317 316 -527 -56 -349 -332 -542 -673 -470
-166 35 -296 161 -356 346 -16 48 -74 115 -125 142 -40 22 -48 22 -406 22
-357 0 -366 0 -406 -22 -58 -31 -119 -104 -133 -157 -9 -37 -7 -63 10 -148 61
-308 198 -567 414 -784 136 -136 255 -225 406 -303 382 -199 841 -234 1255
-96 213 71 403 187 573 350 332 320 489 652 508 1080 16 351 -76 703 -251 962
-216 320 -581 575 -968 674 -190 48 -210 49 -1568 49 l-1275 0 -50 -24z"/>
<path d="M5026 5018 c122 -126 193 -214 284 -355 104 -159 209 -385 260 -560
l13 -42 1031 -3 c1024 -4 1032 -4 1109 -26 101 -28 154 -52 235 -106 163 -108
287 -279 338 -466 25 -91 25 -319 0 -409 -41 -150 -118 -275 -234 -382 -112
-103 -231 -165 -375 -196 -91 -19 -314 -13 -402 11 -174 47 -325 163 -442 338
-71 107 -109 140 -183 158 -30 7 -158 10 -380 8 l-335 -3 -53 -29 c-74 -41
-125 -113 -138 -194 -9 -55 22 -155 97 -312 261 -546 776 -942 1354 -1040 114
-20 154 -22 325 -17 166 5 217 10 345 37 416 86 727 254 999 540 207 218 350
458 429 720 145 479 120 937 -72 1345 -148 312 -414 618 -701 805 -88 56 -265
142 -375 180 -110 38 -278 75 -407 89 -64 7 -562 11 -1459 11 l-1362 0 99
-102z"/>
</g>
</svg>
